<?xml version="1.0" encoding="UTF-8" standalone="no"?>
<!-- Created with Inkscape (http://www.inkscape.org/) -->

<svg
   width="512"
   height="512"
   viewBox="0 0 135.46666 135.46666"
   version="1.1"
   id="svg5"
   inkscape:version="1.1.2 (0a00cf5339, 2022-02-04)"
   sodipodi:docname="AltitudeDistanceCalculationDiagram.svg"
   xmlns:inkscape="http://www.inkscape.org/namespaces/inkscape"
   xmlns:sodipodi="http://sodipodi.sourceforge.net/DTD/sodipodi-0.dtd"
   xmlns="http://www.w3.org/2000/svg"
   xmlns:svg="http://www.w3.org/2000/svg">
  <sodipodi:namedview
     id="namedview7"
     pagecolor="#505050"
     bordercolor="#eeeeee"
     borderopacity="1"
     inkscape:pageshadow="0"
     inkscape:pageopacity="0"
     inkscape:pagecheckerboard="0"
     inkscape:document-units="mm"
     showgrid="false"
     units="px"
     width="512px"
     inkscape:zoom="1.1258897"
     inkscape:cx="235.36941"
     inkscape:cy="130.56341"
     inkscape:window-width="1358"
     inkscape:window-height="691"
     inkscape:window-x="4"
     inkscape:window-y="36"
     inkscape:window-maximized="0"
     inkscape:current-layer="layer1" />
  <defs
     id="defs2" />
  <g
     inkscape:label="Layer 1"
     inkscape:groupmode="layer"
     id="layer1">
    <path
       id="path846"
       style="fill:none;stroke:#000000;stroke-width:10.5833;stroke-miterlimit:4;stroke-dasharray:none"
       d="M -0.16857556,52.515479 A 86.359589,86.359589 0 0 0 -6.7717899,52.773861 V 141.71572 H 86.084558 A 86.359589,86.359589 0 0 0 86.19101,138.87506 86.359589,86.359589 0 0 0 -0.16857556,52.515479 Z" />
    <text
       xml:space="preserve"
       style="font-style:normal;font-weight:normal;font-size:10.5833px;line-height:1.25;font-family:sans-serif;fill:#000000;fill-opacity:1;stroke:none;stroke-width:0.264583"
       x="3.8662848"
       y="26.929058"
       id="text4199"><tspan
         sodipodi:role="line"
         id="tspan4197"
         style="font-style:normal;font-variant:normal;font-weight:bold;font-stretch:normal;font-size:35.2778px;font-family:sans-serif;-inkscape-font-specification:'sans-serif, Bold';font-variant-ligatures:normal;font-variant-caps:normal;font-variant-numeric:normal;font-variant-east-asian:normal;fill:#00ff00;fill-opacity:1;stroke-width:0.264583"
         x="3.8662848"
         y="26.929058">&gt;</tspan></text>
    <path
       style="fill:none;stroke:#000000;stroke-width:1.47773;stroke-linecap:butt;stroke-linejoin:miter;stroke-miterlimit:4;stroke-dasharray:1.47773, 1.47773;stroke-dashoffset:0;stroke-opacity:1"
       d="M 19.865599,22.693204 V 48.700136"
       id="path6142" />
    <text
       xml:space="preserve"
       style="font-style:normal;font-weight:normal;font-size:9.39643px;line-height:1.25;font-family:sans-serif;fill:#000000;fill-opacity:1;stroke:none;stroke-width:0.234911"
       x="21.545994"
       y="-23.601791"
       id="text11069"
       transform="rotate(90)"><tspan
         sodipodi:role="line"
         id="tspan11067"
         style="stroke-width:0.234911"
         x="21.545994"
         y="-23.601791">500m</tspan></text>
    <path
       style="fill:none;stroke:#000000;stroke-width:1.47773;stroke-linecap:butt;stroke-linejoin:miter;stroke-miterlimit:4;stroke-dasharray:1.47773, 1.47773;stroke-dashoffset:0;stroke-opacity:1"
       d="M 76.302933,80.302764 96.507962,63.928476"
       id="path6142-5" />
    <text
       xml:space="preserve"
       style="font-style:normal;font-weight:normal;font-size:9.39643px;line-height:1.25;font-family:sans-serif;fill:#000000;fill-opacity:1;stroke:none;stroke-width:0.234911"
       x="8.8013515"
       y="107.24287"
       id="text11069-7"
       transform="rotate(-38.399896)"><tspan
         sodipodi:role="line"
         id="tspan11067-4"
         style="stroke-width:0.234911"
         x="8.8013515"
         y="107.24287">500m</tspan></text>
    <path
       style="color:#000000;fill:#ffffff;stroke:#000000;stroke-width:0.529167;stroke-miterlimit:4;stroke-dasharray:none;stroke-opacity:1"
       d="m 12.789063,52.939453 v 1.324219 c 8.306882,0 19.899305,3.993975 30.726562,10.36914 10.827257,6.375166 20.905943,15.124347 26.351562,24.470704 L 71.009766,88.4375 C 65.388532,78.789737 55.160414,69.955071 44.1875,63.494141 33.214586,57.033211 21.514719,52.939453 12.789063,52.939453 Z"
       id="path13761" />
    <g
       aria-label="Calculated Distance"
       transform="rotate(33.623288)"
       id="text17667"
       style="font-size:10.5833px;line-height:1.25;stroke-width:0.423333">
      <g
         id="g39209">
        <g
           id="g39187">
          <path
             d="m 55.994258,43.907021 q -0.456475,0.23685 -0.951707,0.357429 -0.495232,0.120578 -1.033528,0.120578 -1.606275,0 -2.545063,-0.895724 -0.938788,-0.900031 -0.938788,-2.437404 0,-1.54168 0.938788,-2.437404 0.938788,-0.900031 2.545063,-0.900031 0.538296,0 1.033528,0.120579 0.495232,0.120578 0.951707,0.357428 v 1.330667 q -0.460781,-0.314364 -0.908644,-0.460781 -0.447862,-0.146416 -0.943094,-0.146416 -0.887112,0 -1.395263,0.56844 -0.508151,0.568441 -0.508151,1.567518 0,0.994771 0.508151,1.563211 0.508151,0.56844 1.395263,0.56844 0.495232,0 0.943094,-0.146416 0.447863,-0.146416 0.908644,-0.460781 z"
             style="font-weight:bold;font-size:8.81944px;-inkscape-font-specification:'sans-serif, Bold';fill:#fffffc;stroke:#000000"
             id="path39112" />
          <path
             d="m 59.460883,42.089734 q -0.482313,0 -0.727776,0.163642 -0.241156,0.163642 -0.241156,0.482313 0,0.292833 0.193786,0.460782 0.198093,0.163642 0.546909,0.163642 0.434943,0 0.732082,-0.310059 0.29714,-0.314365 0.29714,-0.783759 v -0.176561 z m 2.355583,-0.581359 v 2.751768 h -1.554598 v -0.714857 q -0.310059,0.43925 -0.697632,0.641649 -0.387573,0.198093 -0.943094,0.198093 -0.749308,0 -1.218702,-0.434943 -0.465088,-0.43925 -0.465088,-1.136881 0,-0.848354 0.58136,-1.24454 0.585666,-0.396186 1.834512,-0.396186 h 0.908644 V 41.0519 q 0,-0.366041 -0.288527,-0.53399 -0.288526,-0.172254 -0.900031,-0.172254 -0.495232,0 -0.921562,0.09905 -0.42633,0.09905 -0.792372,0.297139 v -1.175638 q 0.495233,-0.120578 0.994771,-0.180867 0.499539,-0.0646 0.999077,-0.0646 1.30483,0 1.881883,0.516764 0.581359,0.512458 0.581359,1.670871 z"
             style="font-weight:bold;font-size:8.81944px;-inkscape-font-specification:'sans-serif, Bold';fill:#fffffc;stroke:#000000"
             id="path39114" />
          <path
             d="m 63.250487,37.559436 h 1.541679 v 6.700707 h -1.541679 z"
             style="font-weight:bold;font-size:8.81944px;-inkscape-font-specification:'sans-serif, Bold';fill:#fffffc;stroke:#000000"
             id="path39116" />
          <path
             d="m 70.170818,39.587735 v 1.257459 q -0.314365,-0.215318 -0.633036,-0.318671 -0.314365,-0.103353 -0.654568,-0.103353 -0.645955,0 -1.00769,0.37896 -0.357428,0.374654 -0.357428,1.050754 0,0.6761 0.357428,1.05506 0.361735,0.374654 1.00769,0.374654 0.361735,0 0.684713,-0.107659 0.327284,-0.107659 0.602891,-0.318671 v 1.261765 q -0.361735,0.133498 -0.736389,0.198093 -0.370347,0.0689 -0.745001,0.0689 -1.304829,0 -2.041218,-0.667487 -0.736389,-0.671793 -0.736389,-1.864657 0,-1.192864 0.736389,-1.860351 0.736389,-0.671793 2.041218,-0.671793 0.37896,0 0.745001,0.0689 0.370348,0.0646 0.736389,0.198093 z"
             style="font-weight:bold;font-size:8.81944px;-inkscape-font-specification:'sans-serif, Bold';fill:#fffffc;stroke:#000000"
             id="path39118" />
          <path
             d="m 71.449809,42.382567 v -2.945555 h 1.550292 v 0.482313 q 0,0.39188 -0.0043,0.986158 -0.0043,0.589973 -0.0043,0.788065 0,0.58136 0.03014,0.839742 0.03014,0.254076 0.103352,0.370348 0.09474,0.150722 0.245463,0.232543 0.15503,0.08182 0.353122,0.08182 0.482314,0 0.757921,-0.370347 0.275608,-0.370348 0.275608,-1.029222 v -2.381421 h 1.541679 v 4.823131 h -1.541679 v -0.697631 q -0.348816,0.422024 -0.740696,0.624423 -0.387573,0.198093 -0.856967,0.198093 -0.835435,0 -1.274684,-0.512458 -0.434943,-0.512457 -0.434943,-1.490003 z"
             style="font-weight:bold;font-size:8.81944px;-inkscape-font-specification:'sans-serif, Bold';fill:#fffffc;stroke:#000000"
             id="path39120" />
          <path
             d="m 77.78017,37.559436 h 1.541679 v 6.700707 H 77.78017 Z"
             style="font-weight:bold;font-size:8.81944px;-inkscape-font-specification:'sans-serif, Bold';fill:#fffffc;stroke:#000000"
             id="path39122" />
          <path
             d="m 82.965035,42.089734 q -0.482313,0 -0.727776,0.163642 -0.241156,0.163642 -0.241156,0.482313 0,0.292833 0.193786,0.460782 0.198093,0.163642 0.546909,0.163642 0.434943,0 0.732082,-0.310059 0.29714,-0.314365 0.29714,-0.783759 v -0.176561 z m 2.355583,-0.581359 v 2.751768 H 83.76602 v -0.714857 q -0.310059,0.43925 -0.697632,0.641649 -0.387573,0.198093 -0.943094,0.198093 -0.749308,0 -1.218702,-0.434943 -0.465088,-0.43925 -0.465088,-1.136881 0,-0.848354 0.58136,-1.24454 0.585666,-0.396186 1.834512,-0.396186 H 83.76602 V 41.0519 q 0,-0.366041 -0.288527,-0.53399 -0.288527,-0.172254 -0.900031,-0.172254 -0.495232,0 -0.921562,0.09905 -0.426331,0.09905 -0.792372,0.297139 v -1.175638 q 0.495232,-0.120578 0.994771,-0.180867 0.499539,-0.0646 0.999077,-0.0646 1.304829,0 1.881883,0.516764 0.581359,0.512458 0.581359,1.670871 z"
             style="font-weight:bold;font-size:8.81944px;-inkscape-font-specification:'sans-serif, Bold';fill:#fffffc;stroke:#000000"
             id="path39124" />
          <path
             d="m 88.438427,38.067587 v 1.369425 h 1.58905 v 1.10243 h -1.58905 v 2.045524 q 0,0.335897 0.133498,0.456475 0.133497,0.116272 0.529683,0.116272 h 0.792372 v 1.10243 h -1.322055 q -0.91295,0 -1.296217,-0.37896 -0.37896,-0.383267 -0.37896,-1.296217 v -2.045524 h -0.766533 v -1.10243 h 0.766533 v -1.369425 z"
             style="font-weight:bold;font-size:8.81944px;-inkscape-font-specification:'sans-serif, Bold';fill:#fffffc;stroke:#000000"
             id="path39126" />
          <path
             d="m 95.785091,41.835659 v 0.439249 h -3.604429 q 0.05598,0.542602 0.391879,0.813903 0.335897,0.271302 0.938788,0.271302 0.48662,0 0.994771,-0.142111 0.512458,-0.146416 1.050754,-0.439249 v 1.188557 q -0.546909,0.206706 -1.093818,0.310059 -0.546908,0.107659 -1.093817,0.107659 -1.309135,0 -2.036912,-0.663181 -0.723469,-0.667487 -0.723469,-1.868963 0,-1.179945 0.71055,-1.856044 0.714857,-0.6761 1.963704,-0.6761 1.136881,0 1.817287,0.684713 0.684712,0.684712 0.684712,1.830206 z m -1.584743,-0.512458 q 0,-0.43925 -0.258382,-0.706244 -0.254076,-0.271301 -0.667487,-0.271301 -0.447862,0 -0.727776,0.254075 -0.279914,0.24977 -0.348816,0.72347 z"
             style="font-weight:bold;font-size:8.81944px;-inkscape-font-specification:'sans-serif, Bold';fill:#fffffc;stroke:#000000"
             id="path39128" />
          <path
             d="m 100.23357,40.143256 v -2.58382 h 1.55029 v 6.700707 h -1.55029 v -0.697631 q -0.318676,0.42633 -0.701943,0.624423 -0.383266,0.198093 -0.887111,0.198093 -0.891418,0 -1.464165,-0.706244 -0.572747,-0.710551 -0.572747,-1.8259 0,-1.115349 0.572747,-1.821593 0.572747,-0.710551 1.464165,-0.710551 0.499538,0 0.882805,0.202399 0.387573,0.198093 0.706249,0.620117 z m -1.016308,3.122116 q 0.495233,0 0.753615,-0.361734 0.262693,-0.361735 0.262693,-1.050754 0,-0.689019 -0.262693,-1.050754 -0.258382,-0.361734 -0.753615,-0.361734 -0.490925,0 -0.753614,0.361734 -0.258382,0.361735 -0.258382,1.050754 0,0.689019 0.258382,1.050754 0.262689,0.361734 0.753614,0.361734 z"
             style="font-weight:bold;font-size:8.81944px;-inkscape-font-specification:'sans-serif, Bold';fill:#fffffc;stroke:#000000"
             id="path39130" />
        </g>
        <g
           id="g39175"
           transform="translate(4.7015902,-4.3974561)">
          <path
             d="m 52.553471,52.313015 v 3.9231 h 0.594278 q 1.016303,0 1.550292,-0.503845 0.538296,-0.503845 0.538296,-1.464165 0,-0.956013 -0.533989,-1.455552 -0.53399,-0.499538 -1.554599,-0.499538 z m -1.657952,-1.253153 h 1.748385 q 1.464165,0 2.179022,0.211012 0.719163,0.206705 1.231621,0.706244 0.452169,0.434943 0.671793,1.003383 0.219625,0.568441 0.219625,1.287604 0,0.727776 -0.219625,1.300523 -0.219624,0.568441 -0.671793,1.003384 -0.516764,0.499538 -1.240234,0.71055 -0.723469,0.206706 -2.170409,0.206706 h -1.748385 z"
             style="font-weight:bold;font-size:8.81944px;-inkscape-font-specification:'sans-serif, Bold';fill:#fffffc;stroke:#000000"
             id="path39132" />
          <path
             d="m 58.147442,52.666137 h 1.541679 v 4.823131 h -1.541679 z m 0,-1.877576 h 1.541679 v 1.257459 h -1.541679 z"
             style="font-weight:bold;font-size:8.81944px;-inkscape-font-specification:'sans-serif, Bold';fill:#fffffc;stroke:#000000"
             id="path39134" />
          <path
             d="m 64.938583,52.816859 v 1.171332 Q 64.44335,53.781486 63.982569,53.678133 63.521788,53.57478 63.112683,53.57478 q -0.439249,0 -0.654568,0.111966 -0.211012,0.107659 -0.211012,0.335896 0,0.185174 0.159336,0.284221 0.163642,0.09905 0.581359,0.146416 l 0.271301,0.03876 q 1.184251,0.150723 1.593356,0.495233 0.409105,0.344509 0.409105,1.080898 0,0.770839 -0.56844,1.158412 -0.568441,0.387573 -1.696709,0.387573 -0.478007,0 -0.990464,-0.07751 -0.508152,-0.07321 -1.046448,-0.223931 v -1.171332 q 0.460782,0.223931 0.943095,0.335897 0.486619,0.111965 0.986158,0.111965 0.452168,0 0.680406,-0.124885 0.228237,-0.124884 0.228237,-0.370347 0,-0.206706 -0.159335,-0.305752 -0.155029,-0.103353 -0.624423,-0.159336 l -0.271302,-0.03445 q -1.029221,-0.129191 -1.442633,-0.478006 -0.413411,-0.348816 -0.413411,-1.059367 0,-0.766533 0.525377,-1.136881 0.525377,-0.370347 1.610581,-0.370347 0.426331,0 0.895725,0.0646 0.469394,0.0646 1.020609,0.202399 z"
             style="font-weight:bold;font-size:8.81944px;-inkscape-font-specification:'sans-serif, Bold';fill:#fffffc;stroke:#000000"
             id="path39136" />
          <path
             d="m 68.103762,51.296712 v 1.369425 h 1.58905 v 1.10243 h -1.58905 v 2.045524 q 0,0.335897 0.133497,0.456475 0.133498,0.116272 0.529684,0.116272 h 0.792371 v 1.10243 h -1.322055 q -0.912949,0 -1.296216,-0.37896 -0.37896,-0.383267 -0.37896,-1.296217 v -2.045524 h -0.766534 v -1.10243 h 0.766534 v -1.369425 z"
             style="font-weight:bold;font-size:8.81944px;-inkscape-font-specification:'sans-serif, Bold';fill:#fffffc;stroke:#000000"
             id="path39138" />
          <path
             d="m 72.797702,55.318859 q -0.482313,0 -0.727776,0.163642 -0.241157,0.163642 -0.241157,0.482313 0,0.292833 0.193787,0.460781 0.198093,0.163642 0.546908,0.163642 0.434943,0 0.732083,-0.310058 0.297139,-0.314365 0.297139,-0.783759 v -0.176561 z m 2.355583,-0.58136 v 2.751769 h -1.554599 v -0.714857 q -0.310058,0.439249 -0.697631,0.641649 -0.387574,0.198092 -0.943095,0.198092 -0.749308,0 -1.218702,-0.434943 -0.465087,-0.439249 -0.465087,-1.136881 0,-0.848354 0.581359,-1.24454 0.585666,-0.396185 1.834513,-0.396185 h 0.908643 v -0.120579 q 0,-0.366041 -0.288527,-0.533989 -0.288526,-0.172255 -0.90003,-0.172255 -0.495233,0 -0.921563,0.09905 -0.42633,0.09905 -0.792371,0.297139 v -1.175638 q 0.495232,-0.120579 0.99477,-0.180868 0.499539,-0.0646 0.999078,-0.0646 1.304829,0 1.881882,0.516764 0.58136,0.512457 0.58136,1.67087 z"
             style="font-weight:bold;font-size:8.81944px;-inkscape-font-specification:'sans-serif, Bold';fill:#fffffc;stroke:#000000"
             id="path39140" />
          <path
             d="m 81.436276,54.552325 v 2.936943 h -1.550293 v -0.478007 -1.769917 q 0,-0.624423 -0.03014,-0.861273 -0.02584,-0.23685 -0.09474,-0.348816 -0.09043,-0.150723 -0.245463,-0.232544 -0.155029,-0.08613 -0.353122,-0.08613 -0.482313,0 -0.757921,0.374654 -0.275607,0.370347 -0.275607,1.029222 v 2.372808 h -1.54168 v -4.823131 h 1.54168 v 0.706244 q 0.348815,-0.422024 0.740695,-0.620117 0.391879,-0.202399 0.86558,-0.202399 0.835435,0 1.266071,0.512457 0.434944,0.512458 0.434944,1.490003 z"
             style="font-weight:bold;font-size:8.81944px;-inkscape-font-specification:'sans-serif, Bold';fill:#fffffc;stroke:#000000"
             id="path39142" />
          <path
             d="m 86.763251,52.816859 v 1.25746 Q 86.448886,53.859 86.130215,53.755648 85.81585,53.652295 85.475647,53.652295 q -0.645955,0 -1.00769,0.37896 -0.357428,0.374654 -0.357428,1.050754 0,0.676099 0.357428,1.05506 0.361735,0.374653 1.00769,0.374653 0.361735,0 0.684713,-0.107659 0.327284,-0.107659 0.602891,-0.318671 v 1.261766 q -0.361735,0.133497 -0.736389,0.198093 -0.370347,0.0689 -0.745001,0.0689 -1.304829,0 -2.041218,-0.667486 -0.736389,-0.671794 -0.736389,-1.864657 0,-1.192864 0.736389,-1.860351 0.736389,-0.671793 2.041218,-0.671793 0.37896,0 0.745001,0.0689 0.370348,0.0646 0.736389,0.198092 z"
             style="font-weight:bold;font-size:8.81944px;-inkscape-font-specification:'sans-serif, Bold';fill:#fffffc;stroke:#000000"
             id="path39144" />
          <path
             d="m 92.908435,55.064783 v 0.43925 h -3.604429 q 0.05598,0.542602 0.39188,0.813903 0.335896,0.271301 0.938788,0.271301 0.486619,0 0.99477,-0.14211 0.512458,-0.146417 1.050754,-0.439249 v 1.188557 q -0.546909,0.206705 -1.093817,0.310058 -0.546909,0.107659 -1.093817,0.107659 -1.309136,0 -2.036912,-0.66318 -0.72347,-0.667487 -0.72347,-1.868963 0,-1.179945 0.710551,-1.856045 0.714857,-0.676099 1.963703,-0.676099 1.136881,0 1.817287,0.684712 0.684712,0.684712 0.684712,1.830206 z m -1.584743,-0.512458 q 0,-0.439249 -0.258382,-0.706244 -0.254075,-0.271301 -0.667487,-0.271301 -0.447862,0 -0.727776,0.254076 -0.279913,0.249769 -0.348815,0.723469 z"
             style="font-weight:bold;font-size:8.81944px;-inkscape-font-specification:'sans-serif, Bold';fill:#fffffc;stroke:#000000"
             id="path39146" />
        </g>
      </g>
    </g>
    <g
       aria-label="Real Distance"
       id="text30667"
       style="font-size:10.5833px;line-height:1.25;stroke-width:0.423333"
       transform="translate(10.59526,-11.824367)">
      <g
         id="g36075"
         transform="rotate(28.72355,55.831808,60.531985)">
        <g
           id="g36059">
          <path
             d="m 39.309295,32.098411 q 0.521071,0 0.745002,-0.193787 0.228237,-0.193786 0.228237,-0.637342 0,-0.439249 -0.228237,-0.62873 -0.223931,-0.18948 -0.745002,-0.18948 h -0.697631 v 1.649339 z m -0.697631,1.145494 v 2.433097 h -1.657952 v -6.429406 h 2.532144 q 1.270379,0 1.860351,0.42633 0.594279,0.426331 0.594279,1.347893 0,0.637342 -0.310059,1.046447 -0.305752,0.409105 -0.925869,0.602892 0.340203,0.07751 0.607198,0.353122 0.271301,0.271301 0.546909,0.826822 l 0.90003,1.8259 h -1.76561 L 40.209326,34.07934 q -0.23685,-0.482313 -0.482313,-0.658874 -0.241157,-0.176561 -0.645955,-0.176561 z"
             style="font-weight:bold;font-size:8.81944px;-inkscape-font-specification:'sans-serif, Bold';fill:#ffffff;stroke:#000000"
             id="path36002" />
          <path
             d="m 48.49047,33.252517 v 0.43925 h -3.604429 q 0.05598,0.542602 0.391879,0.813903 0.335897,0.271301 0.938788,0.271301 0.48662,0 0.994771,-0.14211 0.512458,-0.146416 1.050754,-0.439249 v 1.188557 q -0.546909,0.206706 -1.093818,0.310058 -0.546908,0.10766 -1.093817,0.10766 -1.309135,0 -2.036912,-0.663181 -0.723469,-0.667487 -0.723469,-1.868963 0,-1.179945 0.71055,-1.856045 0.714857,-0.676099 1.963704,-0.676099 1.136881,0 1.817287,0.684712 0.684712,0.684713 0.684712,1.830206 z M 46.905727,32.74006 q 0,-0.43925 -0.258382,-0.706245 -0.254076,-0.271301 -0.667487,-0.271301 -0.447862,0 -0.727776,0.254076 -0.279914,0.249769 -0.348816,0.72347 z"
             style="font-weight:bold;font-size:8.81944px;-inkscape-font-specification:'sans-serif, Bold';fill:#ffffff;stroke:#000000"
             id="path36004" />
          <path
             d="m 51.819292,33.506593 q -0.482313,0 -0.727776,0.163642 -0.241157,0.163642 -0.241157,0.482313 0,0.292833 0.193787,0.460781 0.198093,0.163642 0.546908,0.163642 0.434944,0 0.732083,-0.310058 0.297139,-0.314365 0.297139,-0.783759 v -0.176561 z m 2.355583,-0.58136 v 2.751769 h -1.554599 v -0.714857 q -0.310058,0.439249 -0.697631,0.641649 -0.387573,0.198093 -0.943095,0.198093 -0.749308,0 -1.218702,-0.434943 -0.465087,-0.43925 -0.465087,-1.136881 0,-0.848355 0.581359,-1.244541 0.585666,-0.396185 1.834513,-0.396185 h 0.908643 v -0.120579 q 0,-0.366041 -0.288526,-0.533989 -0.288527,-0.172255 -0.900031,-0.172255 -0.495232,0 -0.921563,0.09905 -0.42633,0.09905 -0.792371,0.297139 v -1.175638 q 0.495232,-0.120579 0.994771,-0.180868 0.499538,-0.0646 0.999077,-0.0646 1.304829,0 1.881882,0.516764 0.58136,0.512458 0.58136,1.67087 z"
             style="font-weight:bold;font-size:8.81944px;-inkscape-font-specification:'sans-serif, Bold';fill:#ffffff;stroke:#000000"
             id="path36006" />
          <path
             d="m 55.608895,28.976295 h 1.54168 v 6.700707 h -1.54168 z"
             style="font-weight:bold;font-size:8.81944px;-inkscape-font-specification:'sans-serif, Bold';fill:#ffffff;stroke:#000000"
             id="path36008" />
        </g>
        <g
           id="g36053"
           transform="translate(-0.324687)">
          <path
             d="m 28.028324,38.438203 v 3.923101 h 0.594278 q 1.016303,0 1.550293,-0.503845 0.538296,-0.503845 0.538296,-1.464165 0,-0.956014 -0.53399,-1.455552 -0.53399,-0.499539 -1.554599,-0.499539 z M 26.370372,37.18505 h 1.748386 q 1.464164,0 2.179021,0.211012 0.719164,0.206706 1.231621,0.706245 0.452169,0.434943 0.671794,1.003383 0.219624,0.568441 0.219624,1.287604 0,0.727776 -0.219624,1.300523 -0.219625,0.56844 -0.671794,1.003383 -0.516764,0.499539 -1.240233,0.710551 -0.72347,0.206705 -2.170409,0.206705 h -1.748386 z"
             style="font-weight:bold;font-size:8.81944px;-inkscape-font-specification:'sans-serif, Bold';fill:#ffffff;stroke:#000000"
             id="path36010" />
          <path
             d="m 33.622295,38.791325 h 1.541679 v 4.823131 h -1.541679 z m 0,-1.877576 h 1.541679 v 1.257459 h -1.541679 z"
             style="font-weight:bold;font-size:8.81944px;-inkscape-font-specification:'sans-serif, Bold';fill:#ffffff;stroke:#000000"
             id="path36012" />
          <path
             d="m 40.413436,38.942048 v 1.171332 q -0.495232,-0.206706 -0.956014,-0.310058 -0.460781,-0.103353 -0.869886,-0.103353 -0.439249,0 -0.654568,0.111965 -0.211012,0.107659 -0.211012,0.335897 0,0.185174 0.159336,0.28422 0.163642,0.09905 0.58136,0.146417 l 0.271301,0.03876 q 1.184251,0.150723 1.593355,0.495232 0.409105,0.34451 0.409105,1.080898 0,0.77084 -0.56844,1.158413 -0.568441,0.387573 -1.696709,0.387573 -0.478006,0 -0.990464,-0.07751 -0.508151,-0.07321 -1.046447,-0.223932 v -1.171331 q 0.460781,0.223931 0.943094,0.335896 0.486619,0.111966 0.986158,0.111966 0.452169,0 0.680406,-0.124885 0.228238,-0.124885 0.228238,-0.370347 0,-0.206706 -0.159336,-0.305753 -0.155029,-0.103352 -0.624423,-0.159335 l -0.271301,-0.03445 q -1.029222,-0.129191 -1.442633,-0.478007 -0.413412,-0.348816 -0.413412,-1.059366 0,-0.766533 0.525377,-1.136881 0.525377,-0.370348 1.610581,-0.370348 0.426331,0 0.895725,0.0646 0.469394,0.06459 1.020609,0.202399 z"
             style="font-weight:bold;font-size:8.81944px;-inkscape-font-specification:'sans-serif, Bold';fill:#ffffff;stroke:#000000"
             id="path36014" />
          <path
             d="m 43.578615,37.421901 v 1.369424 h 1.58905 v 1.10243 h -1.58905 v 2.045525 q 0,0.335896 0.133498,0.456475 0.133497,0.116272 0.529683,0.116272 h 0.792371 v 1.102429 h -1.322054 q -0.91295,0 -1.296217,-0.37896 -0.37896,-0.383266 -0.37896,-1.296216 v -2.045525 h -0.766533 v -1.10243 h 0.766533 v -1.369424 z"
             style="font-weight:bold;font-size:8.81944px;-inkscape-font-specification:'sans-serif, Bold';fill:#ffffff;stroke:#000000"
             id="path36016" />
          <path
             d="m 48.272555,41.444047 q -0.482313,0 -0.727776,0.163642 -0.241157,0.163642 -0.241157,0.482314 0,0.292832 0.193787,0.460781 0.198093,0.163642 0.546908,0.163642 0.434944,0 0.732083,-0.310059 0.297139,-0.314364 0.297139,-0.783758 v -0.176562 z m 2.355583,-0.581359 v 2.751768 H 49.073539 V 42.8996 q -0.310058,0.439249 -0.697631,0.641648 -0.387573,0.198093 -0.943095,0.198093 -0.749308,0 -1.218702,-0.434943 -0.465087,-0.439249 -0.465087,-1.136881 0,-0.848354 0.581359,-1.24454 0.585666,-0.396186 1.834513,-0.396186 h 0.908643 v -0.120578 q 0,-0.366041 -0.288526,-0.53399 -0.288527,-0.172254 -0.900031,-0.172254 -0.495232,0 -0.921563,0.09905 -0.42633,0.09905 -0.792371,0.29714 V 38.92052 q 0.495232,-0.120578 0.994771,-0.180867 0.499538,-0.0646 0.999077,-0.0646 1.304829,0 1.881882,0.516764 0.58136,0.512458 0.58136,1.670871 z"
             style="font-weight:bold;font-size:8.81944px;-inkscape-font-specification:'sans-serif, Bold';fill:#ffffff;stroke:#000000"
             id="path36018" />
          <path
             d="m 56.911129,40.677514 v 2.936942 H 55.360837 V 43.13645 41.366533 q 0,-0.624423 -0.03014,-0.861274 -0.02584,-0.23685 -0.09474,-0.348815 -0.09043,-0.150723 -0.245463,-0.232544 -0.155029,-0.08613 -0.353122,-0.08613 -0.482313,0 -0.757921,0.374653 -0.275607,0.370348 -0.275607,1.029222 v 2.372808 h -1.54168 v -4.823131 h 1.54168 v 0.706245 q 0.348816,-0.422024 0.740695,-0.620117 0.391879,-0.2024 0.86558,-0.2024 0.835435,0 1.266072,0.512458 0.434943,0.512458 0.434943,1.490003 z"
             style="font-weight:bold;font-size:8.81944px;-inkscape-font-specification:'sans-serif, Bold';fill:#ffffff;stroke:#000000"
             id="path36020" />
          <path
             d="m 62.238104,38.942048 v 1.257459 q -0.314364,-0.215318 -0.633036,-0.318671 -0.314364,-0.103353 -0.654567,-0.103353 -0.645956,0 -1.00769,0.378961 -0.357429,0.374654 -0.357429,1.050753 0,0.6761 0.357429,1.05506 0.361734,0.374654 1.00769,0.374654 0.361734,0 0.684712,-0.107659 0.327284,-0.107659 0.602891,-0.318671 v 1.261765 q -0.361734,0.133498 -0.736388,0.198093 -0.370348,0.0689 -0.745002,0.0689 -1.304829,0 -2.041218,-0.667487 -0.736389,-0.671793 -0.736389,-1.864657 0,-1.192863 0.736389,-1.86035 0.736389,-0.671794 2.041218,-0.671794 0.37896,0 0.745002,0.0689 0.370347,0.0646 0.736388,0.198093 z"
             style="font-weight:bold;font-size:8.81944px;-inkscape-font-specification:'sans-serif, Bold';fill:#ffffff;stroke:#000000"
             id="path36022" />
          <path
             d="m 68.383289,41.189972 v 0.439249 h -3.60443 q 0.05598,0.542603 0.39188,0.813904 0.335896,0.271301 0.938788,0.271301 0.486619,0 0.994771,-0.14211 0.512457,-0.146417 1.050753,-0.43925 v 1.188558 q -0.546908,0.206705 -1.093817,0.310058 -0.546909,0.107659 -1.093817,0.107659 -1.309136,0 -2.036912,-0.66318 -0.72347,-0.667487 -0.72347,-1.868964 0,-1.179944 0.710551,-1.856044 0.714857,-0.6761 1.963703,-0.6761 1.136881,0 1.817287,0.684713 0.684713,0.684712 0.684713,1.830206 z m -1.584743,-0.512458 q 0,-0.439249 -0.258382,-0.706244 -0.254076,-0.271301 -0.667487,-0.271301 -0.447863,0 -0.727776,0.254075 -0.279914,0.24977 -0.348816,0.72347 z"
             style="font-weight:bold;font-size:8.81944px;-inkscape-font-specification:'sans-serif, Bold';fill:#ffffff;stroke:#000000"
             id="path36024" />
        </g>
      </g>
    </g>
    <circle
       style="fill:none;fill-opacity:1;stroke:#ff0006;stroke-width:3.96875;stroke-miterlimit:4;stroke-dasharray:none;stroke-dashoffset:0;stroke-opacity:1"
       id="path39720"
       cx="102.0188"
       cy="56.928398"
       r="4.5254283" />
    <path
       style="fill:#3c3c3c;stroke:#f9ffff;stroke-width:1.065;stroke-linecap:butt;stroke-linejoin:miter;stroke-opacity:1;fill-opacity:1;stroke-miterlimit:4;stroke-dasharray:none"
       d="M 33.20792,16.40881 96.314534,50.43892"
       id="path2467" />
  </g>
</svg>
